<?xml version="1.0" encoding="UTF-8"?>
<svg id="Layer_1" xmlns="http://www.w3.org/2000/svg" version="1.1" viewBox="0 0 28.5 28.5">
  <!-- Generator: Adobe Illustrator 30.1.0, SVG Export Plug-In . SVG Version: 2.1.1 Build 136)  -->
  <defs>
    <style>
      .st0 {
        fill: #5c5796;
      }

      .st1 {
        fill: #332744;
        stroke: #5c5796;
      }
    </style>
  </defs>
  <rect class="st1" x=".5" y=".5" width="27.5" height="27.5" rx="1.5" ry="1.5"/>
  <path class="st0" d="M9.71,22.14c1.31.78,2.78,1.16,4.41,1.16s2.96-.35,4.2-1.04c1.25-.7,2.22-1.66,2.92-2.89.71-1.23,1.06-2.62,1.06-4.15v-1.4h-7.19v2.49h4.16c-.07.77-.3,1.47-.71,2.09-.45.68-1.06,1.22-1.84,1.6-.77.37-1.62.56-2.58.56-1.06,0-2.01-.27-2.85-.8-.84-.54-1.5-1.29-1.97-2.24-.47-.96-.7-2.05-.7-3.28s.23-2.31.7-3.26c.48-.96,1.13-1.7,1.96-2.24.84-.54,1.79-.81,2.84-.81.83,0,1.61.16,2.33.49.72.33,1.32.76,1.8,1.31.48.55.8,1.16.94,1.84h3.01c-.14-1.18-.59-2.26-1.34-3.22-.75-.97-1.72-1.74-2.9-2.3-1.18-.57-2.47-.85-3.85-.85-1.63,0-3.1.39-4.41,1.17-1.31.77-2.33,1.85-3.08,3.24-.74,1.38-1.11,2.92-1.11,4.64s.37,3.27,1.11,4.65c.74,1.38,1.77,2.45,3.08,3.24Z"/>
</svg>