<!-- Copyright 2000-2025 JetBrains s.r.o. and contributors. Use of this source code is governed by the Apache 2.0 license. -->
<svg width="16" height="16" viewBox="0 0 16 16" xmlns="http://www.w3.org/2000/svg">
  <path fill="#43454A" stroke="#5588D6" stroke-linejoin="round" d="M9.312 10.61A.5.5 0 0 0 9 10.5H4A1.5 1.5 0 0 1 2.5 9V4A1.5 1.5 0 0 1 4 2.5h8A1.5 1.5 0 0 1 13.5 4v9.96l-4.188-3.35Z"/>
  <path fill-rule="evenodd" clip-rule="evenodd" d="M15 8C15 11.866 11.866 15 8 15C4.13401 15 1 11.866 1 8C1 4.13401 4.13401 1 8 1C11.866 1 15 4.13401 15 8ZM14 8C14 11.3137 11.3137 14 8 14C6.52316 14 5.17094 13.4664 4.1256 12.5815L12.5815 4.1256C13.4664 5.17094 14 6.52316 14 8ZM3.41849 11.8744L11.8744 3.41849C10.8291 2.53359 9.47686 2 8 2C4.68629 2 2 4.68629 2 8C2 9.47686 2.53359 10.8291 3.41849 11.8744Z" fill="#EE0000"/>
</svg>
